HIERARCHY
ROOT root
{
	OFFSET 0.000000 0.000000 0.000000
	CHANNELS 6 Xposition Yposition Zposition Zrotation Yrotation Xrotation
	JOINT lhip
	{
		OFFSET 0.058581 -0.082280 -0.017664
		CHANNELS 3 Zrotation Yrotation Xrotation
		JOINT lknee
		{
			OFFSET 0.043451 -0.386469 0.008037
			CHANNELS 3 Zrotation Yrotation Xrotation
			JOINT lankle
			{
				OFFSET -0.014790 -0.426874 -0.037428
				CHANNELS 3 Zrotation Yrotation Xrotation
				JOINT ltoe
				{
					OFFSET 0.041054 -0.060286 0.122042
					CHANNELS 3 Zrotation Yrotation Xrotation
					End Site
					{
						OFFSET 0.000000 0.000000 0.000000
					}
				}
			}
		}
	}
	JOINT rhip
	{
		OFFSET -0.060310 -0.090513 -0.013543
		CHANNELS 3 Zrotation Yrotation Xrotation
		JOINT rknee
		{
			OFFSET -0.043257 -0.383688 -0.004843
			CHANNELS 3 Zrotation Yrotation Xrotation
			JOINT rankle
			{
				OFFSET 0.019056 -0.420046 -0.034562
				CHANNELS 3 Zrotation Yrotation Xrotation
				JOINT rtoe
				{
					OFFSET -0.034840 -0.062106 0.130323
					CHANNELS 3 Zrotation Yrotation Xrotation
					End Site
					{
						OFFSET 0.000000 0.000000 0.000000
					}
				}
			}
		}
	}
	JOINT lowerback
	{
		OFFSET 0.004439 0.124404 -0.038385
		CHANNELS 3 Zrotation Yrotation Xrotation
		JOINT upperback
		{
			OFFSET 0.004488 0.137956 0.026820
			CHANNELS 3 Zrotation Yrotation Xrotation
			JOINT chest
			{
				OFFSET -0.002265 0.056032 0.002855
				CHANNELS 3 Zrotation Yrotation Xrotation
				JOINT lowerneck
				{
					OFFSET -0.013390 0.211636 -0.033468
					CHANNELS 3 Zrotation Yrotation Xrotation
					JOINT upperneck
					{
						OFFSET 0.010113 0.088937 0.050410
						CHANNELS 3 Zrotation Yrotation Xrotation
						End Site
						{
							OFFSET 0.000000 0.000000 0.000000
						}
					}
				}
				JOINT lclavicle
				{
					OFFSET 0.071702 0.114000 -0.018898
					CHANNELS 3 Zrotation Yrotation Xrotation
					JOINT lshoulder
					{
						OFFSET 0.122921 0.045205 -0.019046
						CHANNELS 3 Zrotation Yrotation Xrotation
						JOINT lelbow
						{
							OFFSET 0.255332 -0.015649 -0.022946
							CHANNELS 3 Zrotation Yrotation Xrotation
							JOINT lwrist
							{
								OFFSET 0.265709 0.012698 -0.007375
								CHANNELS 3 Zrotation Yrotation Xrotation
								End Site
								{
									OFFSET 0.000000 0.000000 0.000000
								}
							}
						}
					}
				}
				JOINT rclavicle
				{
					OFFSET -0.082954 0.112472 -0.023707
					CHANNELS 3 Zrotation Yrotation Xrotation
					JOINT rshoulder
					{
						OFFSET -0.113228 0.046853 -0.008472
						CHANNELS 3 Zrotation Yrotation Xrotation
						JOINT relbow
						{
							OFFSET -0.260127 -0.014369 -0.031269
							CHANNELS 3 Zrotation Yrotation Xrotation
							JOINT rwrist
							{
								OFFSET -0.269108 0.006794 -0.006027
								CHANNELS 3 Zrotation Yrotation Xrotation
								End Site
								{
									OFFSET 0.000000 0.000000 0.000000
								}
							}
						}
					}
				}
			}
		}
	}
}
MOTION
Frames: 7
Frame Time: 0.033333
-1.304184 0.314742 0.973575 94.241512 -1.099786 81.878706 -1.478646 4.927017 15.866924 -4.565792 -17.295265 8.484470 6.723747 7.532325 -17.900153 0.000000 -0.000000 0.000000 -1.343870 -2.570095 -21.049974 -0.907259 -5.059291 9.667390 8.199292 -9.170538 -5.241620 0.000000 -0.000000 0.000000 -0.448291 -4.738237 15.488961 1.344084 -1.179898 -4.044208 0.740674 -3.738494 2.707739 1.273385 6.145666 -7.435304 -4.031504 -0.226550 11.431089 -27.789056 3.433628 -1.128196 -50.018768 -12.018321 8.768340 6.059030 -31.763744 7.702234 -0.378568 -1.516721 0.013322 33.130096 -2.021406 -1.609414 51.127179 2.738412 13.780748 -11.185659 18.748766 -10.313784 5.264242 0.419730 -2.142110 
-1.265188 0.310713 0.966942 95.309897 -1.126713 82.462271 -0.183831 5.446489 17.907088 -4.789385 -18.264669 8.203338 4.817747 5.831630 -18.217102 0.000000 -0.000000 0.000000 -1.414549 -3.421781 -20.331443 -0.423568 -5.311564 -0.277924 11.344522 -7.016610 -4.717842 0.000000 -0.000000 0.000000 -0.691392 -4.973308 15.241991 1.373525 -1.933970 -3.945023 1.213486 -4.212430 2.264629 1.020781 6.431989 -7.063603 -3.573264 -0.545158 11.102119 -27.487091 3.089042 -1.247615 -49.875527 -12.987330 8.672330 6.511697 -31.976180 6.713676 0.244631 -1.819642 0.248262 33.046141 -2.470757 -1.633095 51.562022 2.386162 13.531002 -11.148487 18.208260 -9.825339 5.126554 0.411574 -2.187144 
-1.225140 0.306891 0.962528 96.461058 -0.888646 82.677260 0.964674 5.328766 19.312727 -4.917436 -20.082876 10.100577 3.553630 5.219891 -18.175754 0.000000 -0.000000 0.000000 -1.486625 -3.249371 -21.526522 -0.456211 -6.830369 2.024808 10.700654 -7.684229 -5.685820 0.000000 -0.000000 0.000000 -0.668717 -5.681010 15.589073 1.513568 -2.092226 -4.182875 1.385892 -4.605277 2.047215 0.920891 6.494983 -7.406745 -3.494193 -0.570523 10.884387 -27.321016 2.658207 -1.255485 -49.778258 -13.699674 8.450545 6.864060 -32.053420 6.266278 1.231158 -0.912361 0.122938 33.254373 -2.494643 -1.690528 51.614753 1.707903 13.177381 -11.195522 17.735407 -10.064987 5.022212 -0.015863 -2.227566 
-1.170621 0.300922 0.960362 97.189728 -0.440739 82.696817 2.228201 4.774725 21.046914 -5.071536 -21.578198 13.458953 2.044799 4.783395 -16.621264 0.000000 -0.000000 0.000000 -1.077001 -2.015407 -22.522224 -0.630599 -7.624466 10.795037 7.739018 -9.870858 -5.615449 0.000000 -0.000000 0.000000 -0.697414 -6.686734 14.966449 1.989039 -1.845287 -3.329025 1.244007 -4.762352 2.140183 1.177869 6.438001 -8.265296 -3.912619 -0.513037 10.922622 -27.865138 2.369163 -0.951952 -49.098931 -14.114571 8.325121 7.605919 -32.867609 5.881012 0.785151 -1.652327 -0.381016 33.763191 -2.270239 -1.796371 51.356047 1.210454 13.231812 -11.165580 16.726823 -10.308144 5.590751 0.038460 -2.603849 
-1.135469 0.296657 0.962111 97.663479 -0.302913 82.999824 2.597418 4.455818 20.931088 -5.261998 -22.188115 16.970422 0.756167 4.430996 -14.036749 0.000000 -0.000000 0.000000 -0.597017 -1.469610 -22.060971 -1.043551 -8.161196 12.819220 6.724547 -10.129980 -2.252092 0.000000 -0.000000 0.000000 -0.597948 -7.186035 14.273804 2.095764 -1.806250 -3.376182 1.099136 -4.793868 2.012015 1.054425 6.136303 -7.757376 -3.754997 -0.044329 11.312661 -28.468995 2.759470 -0.792404 -48.639740 -14.188812 8.137333 7.268346 -32.818247 6.187780 0.336297 -1.936622 -0.173048 34.038498 -2.661375 -1.820796 51.191759 0.838637 13.299811 -10.980871 15.695311 -10.312898 5.397150 -0.506236 -2.612598 
-1.087927 0.290399 0.967575 97.240999 0.381330 83.181793 3.277696 4.265035 20.031535 -6.020903 -22.319692 23.103135 -2.066127 3.946702 -8.102334 0.000000 -0.000000 0.000000 -0.041127 0.069551 -21.172177 0.409593 -6.038895 15.205599 6.721167 -9.265632 -0.516871 0.000000 -0.000000 0.000000 -0.103841 -7.555389 13.144336 2.519953 -1.338670 -2.662510 0.867891 -4.620152 1.680391 1.122207 6.094416 -7.634757 -4.020872 0.125321 11.699471 -29.132803 3.442368 -1.026331 -49.019844 -13.533979 8.680894 7.833085 -32.157934 5.618675 0.006581 -1.585713 -0.006055 34.166247 -3.149888 -1.953616 50.916586 0.783274 13.456742 -10.620358 14.325949 -10.346785 5.273532 -0.903173 -2.687621 
-1.040709 0.283522 0.974431 95.970508 0.898457 83.559345 3.235495 3.583472 17.077729 -7.589054 -20.374855 31.336896 -5.378574 3.728102 1.563924 0.000000 -0.000000 0.000000 1.323272 0.518986 -20.214328 0.721915 -6.264260 18.198353 3.160208 -8.380548 -1.864838 0.000000 -0.000000 0.000000 0.517268 -6.939194 11.896203 2.714148 -1.039430 -2.378341 0.689850 -4.264960 1.450048 0.825012 5.756253 -6.968037 -3.692471 0.424143 11.300900 -29.371889 4.179826 -0.893466 -49.793307 -12.730926 8.741482 8.308359 -31.445205 4.781992 -1.802458 -1.268273 -0.800804 33.809012 -3.361018 -1.270544 51.240568 0.848797 13.007603 -10.780591 13.643731 -10.184161 6.243620 -0.958396 -3.757448 
